<?xml version="1.0" encoding="UTF-8" standalone="no"?>
<!-- Created with Inkscape (http://www.inkscape.org/) -->

<svg
   xmlns:dc="http://purl.org/dc/elements/1.1/"
   xmlns:cc="http://creativecommons.org/ns#"
   xmlns:rdf="http://www.w3.org/1999/02/22-rdf-syntax-ns#"
   xmlns:svg="http://www.w3.org/2000/svg"
   xmlns="http://www.w3.org/2000/svg"
   xmlns:xlink="http://www.w3.org/1999/xlink"
   xmlns:sodipodi="http://sodipodi.sourceforge.net/DTD/sodipodi-0.dtd"
   xmlns:inkscape="http://www.inkscape.org/namespaces/inkscape"
   width="51.565266"
   height="61.79089"
   id="svg2"
   version="1.1"
   inkscape:version="0.48.4 r9939"
   sodipodi:docname="cat_01.svg">
  <defs
     id="defs4">
    <linearGradient
       id="linearGradient5807">
      <stop
         id="stop5809"
         offset="0"
         style="stop-color:#ff6600;stop-opacity:1;" />
      <stop
         id="stop5811"
         offset="1"
         style="stop-color:#ff6600;stop-opacity:0;" />
    </linearGradient>
    <linearGradient
       id="linearGradient5799">
      <stop
         style="stop-color:#ff6600;stop-opacity:1;"
         offset="0"
         id="stop5801" />
      <stop
         style="stop-color:#ff6600;stop-opacity:0;"
         offset="1"
         id="stop5803" />
    </linearGradient>
    <linearGradient
       id="linearGradient5791">
      <stop
         style="stop-color:#ff6600;stop-opacity:1;"
         offset="0"
         id="stop5793" />
      <stop
         style="stop-color:#ffffff;stop-opacity:1;"
         offset="1"
         id="stop5795" />
    </linearGradient>
    <linearGradient
       inkscape:collect="always"
       xlink:href="#linearGradient5791"
       id="linearGradient5797"
       x1="115.2058"
       y1="910.99756"
       x2="111.29173"
       y2="910.99756"
       gradientUnits="userSpaceOnUse" />
    <linearGradient
       inkscape:collect="always"
       xlink:href="#linearGradient5791"
       id="linearGradient5815"
       x1="112.13779"
       y1="110.39105"
       x2="112.13779"
       y2="99.452721"
       gradientUnits="userSpaceOnUse"
       spreadMethod="pad" />
    <linearGradient
       inkscape:collect="always"
       xlink:href="#linearGradient5791"
       id="linearGradient5823"
       x1="121.78382"
       y1="109.00668"
       x2="121.73495"
       y2="120.03166"
       gradientUnits="userSpaceOnUse" />
    <linearGradient
       inkscape:collect="always"
       xlink:href="#linearGradient5791"
       id="linearGradient5831"
       x1="112.83076"
       y1="929.02716"
       x2="112.74083"
       y2="935.34814"
       gradientUnits="userSpaceOnUse" />
    <linearGradient
       inkscape:collect="always"
       xlink:href="#linearGradient5791"
       id="linearGradient5839"
       x1="114.79975"
       y1="929.25525"
       x2="114.79975"
       y2="936.41498"
       gradientUnits="userSpaceOnUse"
       gradientTransform="translate(-2.4499968,-1.1759985)" />
    <linearGradient
       inkscape:collect="always"
       xlink:href="#linearGradient5791"
       id="linearGradient5879"
       x1="133.36568"
       y1="911.67206"
       x2="133.36568"
       y2="924.02008"
       gradientUnits="userSpaceOnUse"
       gradientTransform="matrix(1.0044128,0,0,0.65352944,-2.89178,315.80916)" />
    <linearGradient
       inkscape:collect="always"
       xlink:href="#linearGradient5791-4"
       id="linearGradient5839-9"
       x1="114.79975"
       y1="929.25525"
       x2="114.79975"
       y2="936.41498"
       gradientUnits="userSpaceOnUse"
       gradientTransform="translate(-2.4499968,-1.1759985)" />
    <linearGradient
       id="linearGradient5791-4">
      <stop
         style="stop-color:#ff6600;stop-opacity:1;"
         offset="0"
         id="stop5793-6" />
      <stop
         style="stop-color:#ffffff;stop-opacity:1;"
         offset="1"
         id="stop5795-0" />
    </linearGradient>
    <linearGradient
       y2="936.41498"
       x2="114.79975"
       y1="929.25525"
       x1="114.79975"
       gradientTransform="translate(-0.87892484,-0.66690578)"
       gradientUnits="userSpaceOnUse"
       id="linearGradient5906"
       xlink:href="#linearGradient5791-4"
       inkscape:collect="always" />
    <linearGradient
       inkscape:collect="always"
       xlink:href="#linearGradient5791"
       id="linearGradient5972"
       gradientUnits="userSpaceOnUse"
       gradientTransform="matrix(0.83465354,0,0,0.29915928,19.758441,646.51251)"
       x1="133.36568"
       y1="911.67206"
       x2="133.36568"
       y2="924.02008" />
    <linearGradient
       inkscape:collect="always"
       xlink:href="#linearGradient5791"
       id="linearGradient6040"
       gradientUnits="userSpaceOnUse"
       gradientTransform="matrix(1.0044128,0,0,0.65352944,-2.89178,315.80916)"
       x1="133.36568"
       y1="911.67206"
       x2="133.36568"
       y2="924.02008" />
    <linearGradient
       inkscape:collect="always"
       xlink:href="#linearGradient5791"
       id="linearGradient6053"
       gradientUnits="userSpaceOnUse"
       gradientTransform="matrix(6.6870875,0,0,4.3510084,-739.19237,-3100.686)"
       x1="133.36568"
       y1="911.67206"
       x2="133.36568"
       y2="924.02008" />
  </defs>
  <sodipodi:namedview
     id="base"
     pagecolor="#ffffff"
     bordercolor="#666666"
     borderopacity="1.0"
     inkscape:pageopacity="0.0"
     inkscape:pageshadow="2"
     inkscape:zoom="1.681389"
     inkscape:cx="185.99665"
     inkscape:cy="17.104949"
     inkscape:document-units="px"
     inkscape:current-layer="layer1"
     showgrid="false"
     inkscape:window-width="1920"
     inkscape:window-height="1018"
     inkscape:window-x="-8"
     inkscape:window-y="-8"
     inkscape:window-maximized="1"
     showguides="false"
     fit-margin-top="0"
     fit-margin-left="0"
     fit-margin-right="0"
     fit-margin-bottom="0"
     inkscape:snap-global="false">
    <inkscape:grid
       type="xygrid"
       id="grid3247"
       empspacing="5"
       visible="true"
       enabled="true"
       snapvisiblegridlinesonly="true"
       originx="-127.24232px"
       originy="-132.67467px" />
  </sodipodi:namedview>
  <metadata
     id="metadata7">
    <rdf:RDF>
      <cc:Work
         rdf:about="">
        <dc:format>image/svg+xml</dc:format>
        <dc:type
           rdf:resource="http://purl.org/dc/dcmitype/StillImage" />
        <dc:title></dc:title>
      </cc:Work>
    </rdf:RDF>
  </metadata>
  <g
     inkscape:label="Layer 1"
     inkscape:groupmode="layer"
     id="layer1"
     transform="translate(-127.24232,-857.89661)">
    <rect
       style="fill:url(#linearGradient6053);fill-opacity:1;stroke:#000000;stroke-width:0.89812934;stroke-miterlimit:4;stroke-dasharray:none"
       id="rect4888"
       width="47.891384"
       height="53.138184"
       x="129.09029"
       y="866.08746"
       ry="17.534706" />
    <g
       id="g5957"
       transform="matrix(6.6577083,0,0,6.6577083,-815.19811,-5207.166)">
      <path
         transform="translate(11.367983,810.90118)"
         d="m 133.96583,105.19218 c 0,1.00129 -0.81171,1.81299 -1.813,1.81299 -1.00129,0 -1.813,-0.8117 -1.813,-1.81299 0,-1.00129 0.81171,-1.813 1.813,-1.813 1.00129,0 1.813,0.81171 1.813,1.813 z"
         sodipodi:ry="1.8129977"
         sodipodi:rx="1.8129977"
         sodipodi:cy="105.19218"
         sodipodi:cx="132.15283"
         id="path5889-8"
         style="fill:#ffffff;fill-opacity:1;stroke:#000000;stroke-width:0.2;stroke-linejoin:round;stroke-miterlimit:4;stroke-dasharray:none"
         sodipodi:type="arc" />
      <path
         transform="translate(11.367983,810.90118)"
         d="m 133.08383,105.19218 c 0,0.54124 -0.39489,0.98 -0.882,0.98 -0.48712,0 -0.882,-0.43876 -0.882,-0.98 0,-0.54124 0.39488,-0.98 0.882,-0.98 0.48711,0 0.882,0.43876 0.882,0.98 z"
         sodipodi:ry="0.97999877"
         sodipodi:rx="0.88199884"
         sodipodi:cy="105.19218"
         sodipodi:cx="132.20183"
         id="path5881-1"
         style="fill:#eced15;fill-opacity:1;stroke:#000000;stroke-width:0.2;stroke-linejoin:round;stroke-miterlimit:4;stroke-dasharray:none"
         sodipodi:type="arc" />
      <path
         transform="translate(11.367983,810.90118)"
         d="m 132.64283,105.19218 c 0,0.27062 -0.21938,0.49 -0.49,0.49 -0.27062,0 -0.49,-0.21938 -0.49,-0.49 0,-0.27062 0.21938,-0.49 0.49,-0.49 0.27062,0 0.49,0.21938 0.49,0.49 z"
         sodipodi:ry="0.48999938"
         sodipodi:rx="0.48999938"
         sodipodi:cy="105.19218"
         sodipodi:cx="132.15283"
         id="path5883-2"
         style="fill:#000000;fill-opacity:1;stroke:#000000;stroke-width:0.2;stroke-linejoin:round;stroke-miterlimit:4;stroke-dasharray:none"
         sodipodi:type="arc" />
    </g>
    <g
       transform="matrix(6.6577083,0,0,6.6577083,-789.42615,-5207.166)"
       id="g5962">
      <path
         sodipodi:type="arc"
         style="fill:#ffffff;fill-opacity:1;stroke:#000000;stroke-width:0.2;stroke-linejoin:round;stroke-miterlimit:4;stroke-dasharray:none"
         id="path5964"
         sodipodi:cx="132.15283"
         sodipodi:cy="105.19218"
         sodipodi:rx="1.8129977"
         sodipodi:ry="1.8129977"
         d="m 133.96583,105.19218 c 0,1.00129 -0.81171,1.81299 -1.813,1.81299 -1.00129,0 -1.813,-0.8117 -1.813,-1.81299 0,-1.00129 0.81171,-1.813 1.813,-1.813 1.00129,0 1.813,0.81171 1.813,1.813 z"
         transform="translate(11.367983,810.90118)" />
      <path
         sodipodi:type="arc"
         style="fill:#eced15;fill-opacity:1;stroke:#000000;stroke-width:0.2;stroke-linejoin:round;stroke-miterlimit:4;stroke-dasharray:none"
         id="path5966"
         sodipodi:cx="132.20183"
         sodipodi:cy="105.19218"
         sodipodi:rx="0.88199884"
         sodipodi:ry="0.97999877"
         d="m 133.08383,105.19218 c 0,0.54124 -0.39489,0.98 -0.882,0.98 -0.48712,0 -0.882,-0.43876 -0.882,-0.98 0,-0.54124 0.39488,-0.98 0.882,-0.98 0.48711,0 0.882,0.43876 0.882,0.98 z"
         transform="translate(11.367983,810.90118)" />
      <path
         sodipodi:type="arc"
         style="fill:#000000;fill-opacity:1;stroke:#000000;stroke-width:0.2;stroke-linejoin:round;stroke-miterlimit:4;stroke-dasharray:none"
         id="path5968"
         sodipodi:cx="132.15283"
         sodipodi:cy="105.19218"
         sodipodi:rx="0.48999938"
         sodipodi:ry="0.48999938"
         d="m 132.64283,105.19218 c 0,0.27062 -0.21938,0.49 -0.49,0.49 -0.27062,0 -0.49,-0.21938 -0.49,-0.49 0,-0.27062 0.21938,-0.49 0.49,-0.49 0.27062,0 0.49,0.21938 0.49,0.49 z"
         transform="translate(11.367983,810.90118)" />
    </g>
    <path
       style="fill:#ff6600;fill-opacity:1;stroke:#000000;stroke-width:1.33154166;stroke-linejoin:round;stroke-miterlimit:4;stroke-dasharray:none"
       id="path5998"
       d="m 127.91515,878.88864 c 1.0741,-1.00305 2.01716,-2.13545 2.91695,-3.29423 1.21563,-1.59765 2.20304,-3.33684 2.91707,-5.21085 0.44541,-1.20651 0.50799,-2.48319 0.54527,-3.75388 -0.0134,-1.36969 0.0134,-2.73406 0.1212,-4.09963 0.19174,-2.47872 -0.10446,-1.40224 4.42039,-3.36952 0.005,-0.002 0.23835,0.39612 0.41012,0.68754 0.57256,0.92462 1.24219,1.79692 2.04951,2.5268 0.9111,0.87889 2.04938,1.40557 3.17226,1.95004 0.94866,0.40945 1.93239,0.73708 2.94949,0.92229 0.56924,0.0752 0.28829,0.0465 0.84268,0.0946 0,0 -3.93564,2.79218 -3.93564,2.79218 l 0,0 c -0.56524,-0.0765 -0.27896,-0.0333 -0.85992,-0.1351 -1.03266,-0.23501 -2.03918,-0.58521 -2.99842,-1.03507 -1.15924,-0.56924 -2.30251,-1.16724 -3.24843,-2.06622 -0.82729,-0.77304 -1.52369,-1.67669 -2.14465,-2.62249 -0.072,-0.11048 -0.14045,-0.22368 -0.21638,-0.33154 -0.04,-0.0532 -0.18441,-0.12254 -0.12723,-0.15987 5.0972,-3.32766 4.1911,-3.78204 3.98251,-1.39392 -0.13777,1.35758 -0.19906,2.71221 -0.15184,4.07751 -0.0134,1.31969 -0.0532,2.6485 -0.49133,3.90893 -0.7163,1.90771 -1.68679,3.68925 -2.88105,5.34316 -0.86257,1.17514 -1.80504,2.28299 -2.79192,3.35389 0,0 -4.4807,1.81574 -4.4807,1.81574 z"
       inkscape:connector-curvature="0" />
    <path
       inkscape:connector-curvature="0"
       d="m 176.31564,878.56242 c -1.0741,-1.00305 -2.01715,-2.13545 -2.91695,-3.29424 -1.21562,-1.59764 -2.20304,-3.33683 -2.91707,-5.21086 -0.44541,-1.20649 -0.50798,-2.48318 -0.54527,-3.75386 0.0134,-1.3697 -0.0134,-2.73406 -0.1212,-4.09963 -0.19174,-2.47873 0.10446,-1.40224 -4.42038,-3.36953 -0.005,-0.002 -0.23835,0.39613 -0.41013,0.68753 -0.57255,0.92463 -1.24219,1.79692 -2.04951,2.52682 -0.9111,0.87887 -2.04938,1.40557 -3.17226,1.95004 -0.94866,0.40943 -1.93239,0.73706 -2.94949,0.92229 -0.56924,0.0752 -0.28828,0.0465 -0.84268,0.0946 0,0 3.93564,2.79218 3.93564,2.79218 l 0,0 c 0.56524,-0.0765 0.27896,-0.0333 0.85992,-0.1351 1.03267,-0.23502 2.03918,-0.58521 2.99843,-1.03507 1.15924,-0.56923 2.3025,-1.16723 3.24842,-2.06622 0.8273,-0.77302 1.5237,-1.67667 2.14465,-2.62247 0.072,-0.11049 0.14045,-0.2237 0.21638,-0.33156 0.04,-0.0532 0.18442,-0.12254 0.12723,-0.1597 -5.0972,-3.32766 -4.19109,-3.78206 -3.98251,-1.39393 0.13778,1.35757 0.19906,2.71222 0.15184,4.07751 0.0134,1.31968 0.0532,2.6485 0.49133,3.90894 0.7163,1.9077 1.6868,3.68923 2.88106,5.34314 0.86256,1.17516 1.80503,2.283 2.79191,3.35389 0,0 4.4807,1.81576 4.4807,1.81576 z"
       id="path6000"
       style="fill:#ff6600;fill-opacity:1;stroke:#000000;stroke-width:1.33154166;stroke-linejoin:round;stroke-miterlimit:4;stroke-dasharray:none" />
  </g>
</svg>
